<svg width="65" height="65" viewBox="0 0 65 65" fill="none" xmlns="http://www.w3.org/2000/svg">
<g clip-path="url(#clip0_2_2279)">
<path d="M64.9189 29.29H45.3189L62.2929 19.488L58.9269 13.655L41.9509 23.456L51.7489 6.48096L45.9169 3.11396L36.1169 20.085V0.485962H29.3799V20.087L19.5799 3.11396L13.7459 6.48096L23.5439 23.452L6.57288 13.655L3.20388 19.488L20.1779 29.29H0.577881V36.026H20.1759L3.20388 45.827L6.57088 51.661L23.5469 41.86L13.7459 58.835L19.5779 62.202L29.3799 45.229V64.827H36.1169V44.809L46.0969 62.095L51.5659 58.938L41.5839 41.647L58.9219 51.659L62.2909 45.825L45.3189 36.024H64.9169V29.29H64.9189ZM32.7489 41.815C31.5459 41.815 30.3549 41.578 29.2439 41.118C28.1329 40.658 27.1239 39.983 26.2729 39.133C25.4229 38.282 24.7479 37.272 24.2879 36.161C23.8279 35.05 23.5909 33.859 23.5909 32.656C23.5899 31.453 23.8269 30.262 24.2869 29.15C24.7469 28.039 25.4219 27.029 26.2719 26.178C27.1219 25.328 28.1309 24.653 29.2419 24.192C30.3529 23.732 31.5439 23.495 32.7459 23.495C35.1749 23.494 37.5039 24.459 39.2219 26.177C40.9389 27.894 41.9039 30.224 41.9039 32.654C41.9049 35.083 40.9399 37.413 39.2229 39.131C37.5059 40.849 35.1769 41.814 32.7489 41.815Z" fill="#E5FF76"/>
</g>
<defs>
<clipPath id="clip0_2_2279">
<rect width="65" height="65" fill="white"/>
</clipPath>
</defs>
</svg>
