<svg width="36" height="36" viewBox="0 0 36 36" fill="none" xmlns="http://www.w3.org/2000/svg">
<g clip-path="url(#clip0_2003_28)">
<path d="M10.4637 7.96655C4.87417 12.0276 3.71711 19.966 7.88116 25.6973C11.2125 30.2825 16.939 32.0652 21.9575 30.5164C22.5336 30.2448 22.4861 29.7886 22.2865 29.5139C22.107 29.2669 21.5032 28.4564 20.869 27.5921C18.5095 30.2653 16.5697 28.845 16.5697 28.845C15.2374 27.9798 14.3423 28.1431 14.3423 28.1431C12.9565 28.166 13.9532 27.4619 13.9532 27.4619C15.0229 26.7967 16.2814 27.4043 16.2814 27.4043C18.3371 28.3344 19.4691 26.812 19.8545 26.1272C19.4576 25.3906 19.3872 24.7418 19.4883 24.2723C17.0494 25.6432 14.0402 26.4708 11.1512 22.4945C10.328 21.3614 10.0505 20.1482 10.1695 18.9508C9.87482 18.7664 8.76143 17.9625 8.27287 16.1329C8.27287 16.1329 8.91971 15.237 11.8295 15.1742C12.4695 14.358 13.2525 13.6135 14.1095 12.9846C14.9724 12.3639 15.9224 11.8493 16.8981 11.4916C17.8546 8.74547 18.9057 8.40773 18.9057 8.40773C20.4955 9.43715 20.916 10.7445 21.0004 11.0817C22.1775 11.3374 23.2432 11.978 24.0664 13.111C26.9619 17.0963 25.2317 19.6947 23.1652 21.5884C23.7619 21.6468 24.5445 22.0435 25.2481 23.0119C26.2567 24.4001 27.0564 25.5265 27.3046 25.8681C27.5053 26.1444 27.923 26.3353 28.3617 25.8609C31.3833 21.5671 31.454 15.5737 28.1238 10.9902C23.9597 5.25883 16.0531 3.90556 10.4637 7.96655Z" fill="#E5FF76"/>
</g>
<defs>
<clipPath id="clip0_2003_28">
<rect width="26" height="25" fill="white" transform="translate(0 15.3983) scale(1.00758) rotate(-36)"/>
</clipPath>
</defs>
</svg>
