<svg width="103" height="103" viewBox="0 0 103 103" fill="none" xmlns="http://www.w3.org/2000/svg">
<g clip-path="url(#clip0_2_2271)">
<path d="M19.2065 26.0097C22.8488 16.9948 24.67 12.4873 27.8158 9.75399C30.5821 7.34804 34.0394 5.88127 37.6912 5.5614C41.8432 5.19843 46.3507 7.01957 55.3657 10.6619L76.2901 19.1159C85.3051 22.7582 89.8117 24.579 92.5462 27.7243C94.9518 30.4915 96.4189 33.9479 96.7385 37.6006C97.1018 41.7517 95.2806 46.2591 91.6384 55.2741L83.1843 76.1986C79.542 85.2135 77.7209 89.721 74.5759 92.4547C71.8087 94.8603 68.352 96.3283 64.6997 96.6469C60.5473 97.0108 56.0407 95.19 47.0257 91.5477L26.1013 83.0937C17.0863 79.4514 12.5788 77.6303 9.84461 74.484C7.43959 71.7181 5.97189 68.2604 5.65332 64.6081C5.28905 60.4566 7.11019 55.9492 10.7525 46.9342L19.2065 26.0097Z" fill="#C6DF5D"/>
</g>
<defs>
<clipPath id="clip0_2_2271">
<rect width="79" height="79" fill="white" transform="translate(29.6394) scale(1.00154) rotate(22)"/>
</clipPath>
</defs>
</svg>
