<svg width="121" height="24" viewBox="0 0 121 24" fill="none" xmlns="http://www.w3.org/2000/svg">
<g clip-path="url(#clip0_2_2341)">
<g clip-path="url(#clip1_2_2341)">
<path d="M22.0231 9.67898H25.3651C25.7241 9.67998 26.0151 9.97098 26.0151 10.33V13.675C26.0151 14.034 25.7231 14.326 25.3641 14.326H22.0171C21.6581 14.327 21.3681 14.617 21.3681 14.977V22.969C21.3681 23.328 21.0761 23.62 20.7171 23.62H17.3701H16.0711H12.7251H12.0751V23.614C5.65708 23.614 0.455078 18.413 0.455078 11.997C0.455078 5.58198 5.65708 0.380981 12.0751 0.380981V0.385981H16.0751C16.4341 0.387981 16.7231 0.678981 16.7231 1.03698V4.38298V4.38498C16.7241 4.74298 17.0151 5.03298 17.3741 5.03298H20.7211C21.0751 5.03298 21.3631 4.74998 21.3711 4.39798V4.38998V4.38398V4.38098V1.03498C21.3721 0.677981 21.6621 0.387981 22.0201 0.385981H25.3721C25.7311 0.387981 26.0201 0.678981 26.0201 1.03698V4.38298C26.0201 4.74198 25.7291 5.03298 25.3701 5.03298H22.0231H22.0221C21.6631 5.03298 21.3721 5.32498 21.3721 5.68298V9.02798C21.3721 9.38698 21.6641 9.67898 22.0231 9.67898ZM12.7281 9.67898H16.0751C16.4341 9.67898 16.7261 9.38698 16.7261 9.02798V5.68298C16.7261 5.32398 16.4351 5.03198 16.0761 5.03198H12.7271C12.3691 5.03198 12.0781 5.32298 12.0781 5.68198V9.02898C12.0781 9.38898 12.3691 9.67898 12.7281 9.67898ZM20.7231 14.326C21.0821 14.326 21.3731 14.034 21.3731 13.675V10.33C21.3731 9.97098 21.0831 9.67898 20.7241 9.67898H17.3751C17.0161 9.67998 16.7251 9.97098 16.7251 10.33V13.675C16.7251 14.034 17.0171 14.326 17.3761 14.326H20.7231ZM117.008 8.97798V15.151C117.008 15.943 117.289 16.199 118.312 16.199H120.455V18.854H118.079C115.238 18.854 114.119 17.759 114.119 15.29V8.97798V6.50898V3.52698H117.007V6.50898H120.455V8.97798H117.008ZM41.7871 6.15898C37.9681 6.15898 35.0561 8.95398 35.0561 12.68C35.0561 16.431 37.9681 19.201 41.7871 19.201C44.8851 19.201 47.3781 17.478 48.0761 14.823L45.3751 14.078C44.8391 15.778 43.5821 16.664 41.7871 16.664C39.5751 16.664 37.9451 15.056 37.9451 12.68C37.9451 10.304 39.5751 8.69698 41.7871 8.69698C43.5821 8.69698 44.8621 9.65198 45.3751 11.282L48.0761 10.537C47.3781 7.88198 44.8851 6.15898 41.7871 6.15898ZM49.8461 6.50898V13.683H49.8481C49.8481 17.131 51.9451 19.204 55.3691 19.204C57.2081 19.204 58.6991 18.622 59.7011 17.573H59.7471V18.854H62.5421V6.50898H59.6531V13.217C59.6531 15.197 58.2801 16.595 56.1131 16.595C53.9451 16.595 52.7351 15.36 52.7351 13.217V6.50898H49.8461ZM65.1021 6.50998H67.8501V7.69798H67.8961C68.7351 6.81198 69.9231 6.27598 71.3671 6.27598C72.0661 6.27598 72.6721 6.39298 73.3471 6.60298L72.7191 9.23498C72.0671 9.04898 71.6241 8.97798 70.9721 8.97798C69.1781 8.97798 67.9911 10.189 67.9911 12.635V18.854H65.1021V6.50998ZM77.6101 6.50998H74.8621V18.854H77.7501V12.635C77.7501 10.189 78.9381 8.97798 80.7321 8.97798C81.3841 8.97798 81.8271 9.04898 82.4791 9.23498L83.1071 6.60298C82.4321 6.39298 81.8261 6.27598 81.1271 6.27598C79.6831 6.27598 78.4951 6.81198 77.6561 7.69798H77.6101V6.50998ZM83.3631 12.729C83.3631 8.86298 86.1341 6.15998 90.0011 6.15998C93.8691 6.15998 96.5931 9.02598 96.5931 12.752V13.614H86.2281C86.3211 15.548 87.8821 16.805 90.1421 16.805C91.8191 16.805 93.0311 16.13 94.1721 14.709L96.1051 16.432C94.7311 18.202 92.7981 19.204 90.1651 19.204C85.9491 19.204 83.3631 16.641 83.3631 12.729ZM93.7511 11.518C93.5891 9.79498 92.0741 8.55998 90.0481 8.55998C88.0211 8.55998 86.4611 9.79398 86.2751 11.518H93.7511ZM101.508 6.50998H98.7131L98.7111 6.51098V18.856H101.599V12.125C101.599 10.121 103.205 8.74698 105.349 8.74698C107.493 8.74698 108.82 10.004 108.82 12.1V18.855H111.709V11.658C111.709 8.39598 109.334 6.15998 105.816 6.15998C104.14 6.15998 102.556 6.74198 101.554 7.78998H101.508V6.50998Z" fill="#242424"/>
</g>
</g>
<defs>
<clipPath id="clip0_2_2341">
<rect width="121" height="24" fill="white"/>
</clipPath>
<clipPath id="clip1_2_2341">
<rect width="121" height="24" fill="white"/>
</clipPath>
</defs>
</svg>
