<svg width="43" height="43" viewBox="0 0 43 43" fill="none" xmlns="http://www.w3.org/2000/svg">
<g clip-path="url(#clip0_2003_38)">
<g clip-path="url(#clip1_2003_38)">
<path d="M5.50021 4.26187C5.92962 2.05275 8.06887 0.60981 10.278 1.03922L38.3924 6.50412C40.6016 6.93353 42.0445 9.07278 41.6151 11.2819L36.1504 39.3954C35.721 41.6045 33.5817 43.0474 31.3726 42.618L3.25815 37.1531C1.04903 36.7237 -0.393905 34.5845 0.0355032 32.3753L5.50021 4.26187Z" fill="#C6DF5D"/>
</g>
<g clip-path="url(#clip2_2003_38)">
<path d="M30.2896 10.9859L26.7314 10.2942L28.939 15.8036L23.2132 9.61037L19.655 8.91873L21.5664 15.9469L16.1359 8.23467L12.5777 7.54303L14.0753 16.4274L7.82678 31.9843L11.385 32.6759L21.4305 16.646L14.9041 33.36L18.4623 34.0516L28.803 16.5036L21.9805 34.7355L25.5387 35.4272L36.2931 16.0333L30.2896 10.9859Z" fill="#E5FF76"/>
</g>
</g>
<defs>
<clipPath id="clip0_2003_38">
<rect width="36" height="36" fill="white" transform="translate(6.99807) scale(1.01877) rotate(11)"/>
</clipPath>
<clipPath id="clip1_2003_38">
<rect width="37" height="37" fill="white" transform="translate(5.99796 -0.194377) scale(1.01877) rotate(11)"/>
</clipPath>
<clipPath id="clip2_2003_38">
<rect width="26" height="25" fill="white" transform="translate(11.832 7.16665) scale(1.01877) rotate(11)"/>
</clipPath>
</defs>
</svg>
