<svg width="59" height="67" viewBox="0 0 59 67" fill="none" xmlns="http://www.w3.org/2000/svg">
<g clip-path="url(#clip0_2_2274)">
<path d="M17.3601 10.2276C19.4953 4.94268 25.5618 2.46763 30.8718 4.613L47.369 11.2783C52.6789 13.4237 55.3234 19.4182 53.1882 24.7031C51.855 28.0029 48.99 30.2075 45.7336 30.8759C47.6114 33.6197 48.1408 37.1958 46.8076 40.4956C44.6724 45.7805 38.6059 48.2555 33.296 46.1101L33.0871 46.0257C30.6331 45.0343 28.7478 43.2206 27.6415 41.0348L24.1798 49.6028C22.0161 54.9582 15.8242 57.4204 10.4696 55.257C5.1736 53.1173 2.45883 47.1095 4.5997 41.8107C5.93291 38.5109 8.79757 36.3072 12.0543 35.6379C10.1762 32.895 9.64669 29.3189 10.9799 26.0191C12.3127 22.7202 15.1778 20.5156 18.4345 19.8463C16.5564 17.1035 16.0269 13.5274 17.3601 10.2276ZM30.4993 33.9616C29.1459 37.3862 30.8454 41.341 34.3996 42.777L34.6086 42.8614C38.1795 44.3042 42.17 42.618 43.558 39.1826C44.9463 35.7463 43.2467 31.7623 39.6758 30.3195L39.4669 30.2351C35.9127 28.7991 31.9433 30.4625 30.5379 33.866L30.4993 33.9616ZM16.7984 39.4458L16.7579 39.4283C13.1966 38.0154 9.2321 39.7013 7.84937 43.1236C6.46664 46.546 8.19867 50.5594 11.7826 52.0074C15.425 53.479 19.5246 51.7688 20.9302 48.2898L23.4222 42.1219L16.7984 39.4458ZM39.4322 11.8518L34.3654 24.3927L40.9891 27.0689C44.5601 28.5117 48.5502 26.8264 49.9382 23.3911C51.3265 19.9548 49.6269 15.9707 46.056 14.528L39.4322 11.8518ZM29.8024 26.3304L23.1786 23.6542C19.6077 22.2115 15.6176 23.8967 14.2296 27.3321C12.8465 30.7554 14.5271 34.7221 18.0709 36.1787L18.1117 36.1952L24.7355 38.8713L27.2447 32.6608C27.253 32.6403 27.2609 32.6208 27.2687 32.6013C27.277 32.5809 27.2849 32.5614 27.2931 32.541L29.8024 26.3304ZM20.6094 11.5415C19.2214 14.9768 20.921 18.9609 24.4919 20.4036L31.1157 23.0798L36.1826 10.5388L29.5588 7.86267C25.9879 6.41992 21.9978 8.10516 20.6094 11.5415Z" fill="#E5FF76"/>
</g>
<defs>
<clipPath id="clip0_2_2274">
<rect width="40" height="56" fill="white" transform="translate(21.0073) scale(1.0014) rotate(22)"/>
</clipPath>
</defs>
</svg>
