<svg width="1184" height="740" viewBox="0 0 1184 740" fill="none" xmlns="http://www.w3.org/2000/svg">
<g clip-path="url(#clip0_2_2283)">
<path d="M0 8.99999C0 4.02943 4.02944 0 9 0H1175C1179.97 0 1184 4.02944 1184 9V731C1184 735.971 1179.97 740 1175 740H9.00003C4.02947 740 0 735.971 0 731V8.99999Z" fill="white"/>
</g>
<defs>
<clipPath id="clip0_2_2283">
<path d="M0 8.99999C0 4.02943 4.02944 0 9 0H1175C1179.97 0 1184 4.02944 1184 9V731C1184 735.971 1179.97 740 1175 740H9.00003C4.02947 740 0 735.971 0 731V8.99999Z" fill="white"/>
</clipPath>
</defs>
</svg>
