<svg width="108" height="108" viewBox="0 0 108 108" fill="none" xmlns="http://www.w3.org/2000/svg">
<g clip-path="url(#clip0_2003_30)">
<g clip-path="url(#clip1_2003_30)">
<path d="M35.9174 96.4317L23.7058 87.4799C20.7688 85.3268 18.6691 82.272 17.7385 78.7991L6.67297 37.5019C5.2792 32.3003 8.28357 26.8684 13.5556 25.0636L55.2375 10.7879C58.2658 9.75038 61.5508 9.74884 64.5439 10.7831L82.1651 16.8723C85.3184 17.9622 87.7004 20.487 88.5443 23.6366L101.125 70.5875C102.489 75.6788 99.5258 80.9896 94.3559 82.7224L48.0081 98.2504C43.8822 99.6319 39.354 98.9509 35.9174 96.4317Z" fill="#C6DF5D"/>
</g>
<g clip-path="url(#clip2_2003_30)">
<path d="M39.4874 50.8592L39.3424 50.3181C38.9752 48.9475 39.7683 47.5171 41.158 47.043L51.2783 43.5947L71.1508 60.761L66.2158 42.3435L62.4174 42.8374L62.3484 42.5799C61.977 41.1938 62.7932 39.7489 64.2061 39.2915L73.4536 36.2991L73.8152 37.6483C73.9848 38.2814 73.6587 38.9497 73.0424 39.2321L70.8883 40.218L78.8806 70.0454L76.3103 71.7777C74.1626 73.2246 71.2957 73.0601 69.3929 71.379L49.9647 54.2099L55.3037 74.1354L59.7809 73.8093L59.8267 74.2203C59.9733 75.5068 59.1555 76.7291 57.8786 77.1324L47.414 80.4417C46.9173 79.1493 47.5952 77.6917 48.9327 77.1777L50.2864 76.6583L43.1677 50.0909L39.4874 50.8592Z" fill="#E5FF76"/>
<path d="M57.011 15.8889L15.3281 30.1649C12.8318 31.0194 11.4081 33.593 12.0685 36.0573L23.134 77.3545C23.7544 79.6698 25.1537 81.7058 27.1122 83.1417L39.3235 92.0925C41.2975 93.5398 43.8984 93.9312 46.2688 93.1373L92.6166 77.6093C94.9919 76.8142 96.3536 74.3734 95.7267 72.034L83.1463 25.0831C82.7586 23.6361 81.6644 22.4758 80.2148 21.9752L62.5948 15.8866C60.7988 15.2661 58.828 15.2672 57.011 15.8889ZM18.8605 34.9272C18.1529 34.6479 18.1905 33.6616 18.9176 33.4097L58.3524 19.7528C59.6083 19.3177 60.9758 19.33 62.209 19.7859L71.8071 23.34C72.1721 23.4746 72.1534 23.9817 71.7804 24.1034L29.8213 37.8289C28.5516 38.2438 27.1784 38.2061 25.95 37.7219L18.8605 34.9272ZM29.7696 45.6233C29.399 44.2401 30.2106 42.7975 31.6185 42.3372L75.9795 27.823C77.3521 27.3743 78.8111 28.1307 79.1724 29.479L90.0657 70.1336C90.4356 71.5138 89.6285 72.9542 88.2233 73.4169L44.173 87.9485C42.646 88.4521 41.0203 87.6116 40.6181 86.1104L29.7696 45.6233Z" fill="#E5FF76"/>
</g>
</g>
<defs>
<clipPath id="clip0_2003_30">
<rect width="88" height="88" fill="white" transform="translate(0 22.8231) scale(1.00206) rotate(-15)"/>
</clipPath>
<clipPath id="clip1_2003_30">
<rect width="86" height="86" fill="white" transform="translate(1.22726 23.5316) scale(1.00206) rotate(-15)"/>
</clipPath>
<clipPath id="clip2_2003_30">
<rect width="74" height="74" fill="white" transform="translate(8.59093 27.783) scale(1.00206) rotate(-15)"/>
</clipPath>
</defs>
</svg>
